name C:\Users\r0593348\3dpredictsim\Results\MidTarsalJoint\Fal_s1_bCst_PF_Natali2010_ls150_MT_k300_d050_MTP_T5_ig24.mot
datacolumns 128
datarows 4
range 0.56127341 0.59494981
endheader
time	pelvis_tilt	pelvis_list	pelvis_rotation	pelvis_tx	pelvis_ty	pelvis_tz	hip_flexion_l	hip_adduction_l	hip_rotation_l	hip_flexion_r	hip_adduction_r	hip_rotation_r	knee_angle_l	knee_angle_r	ankle_angle_l	ankle_angle_r	subtalar_angle_l	subtalar_angle_r	tmt_angle_l	tmt_angle_r	mtp_angle_l	mtp_angle_r	lumbar_extension	lumbar_bending	lumbar_rotation	arm_flex_l	arm_add_l	arm_rot_l	arm_flex_r	arm_add_r	arm_rot_r	elbow_flex_l	elbow_flex_r	pro_sup_l	pro_sup_r	glut_med1_l/activation	glut_med2_l/activation	glut_med3_l/activation	glut_min1_l/activation	glut_min2_l/activation	glut_min3_l/activation	semimem_l/activation	semiten_l/activation	bifemlh_l/activation	bifemsh_l/activation	sar_l/activation	add_long_l/activation	add_brev_l/activation	add_mag1_l/activation	add_mag2_l/activation	add_mag3_l/activation	tfl_l/activation	pect_l/activation	grac_l/activation	glut_max1_l/activation	glut_max2_l/activation	glut_max3_l/activation	iliacus_l/activation	psoas_l/activation	quad_fem_l/activation	gem_l/activation	peri_l/activation	rect_fem_l/activation	vas_med_l/activation	vas_int_l/activation	vas_lat_l/activation	med_gas_l/activation	lat_gas_l/activation	soleus_l/activation	tib_post_l/activation	flex_dig_l/activation	flex_hal_l/activation	tib_ant_l/activation	per_brev_l/activation	per_long_l/activation	per_tert_l/activation	ext_dig_l/activation	ext_hal_l/activation	ercspn_l/activation	intobl_l/activation	extobl_l/activation	glut_med1_r/activation	glut_med2_r/activation	glut_med3_r/activation	glut_min1_r/activation	glut_min2_r/activation	glut_min3_r/activation	semimem_r/activation	semiten_r/activation	bifemlh_r/activation	bifemsh_r/activation	sar_r/activation	add_long_r/activation	add_brev_r/activation	add_mag1_r/activation	add_mag2_r/activation	add_mag3_r/activation	tfl_r/activation	pect_r/activation	grac_r/activation	glut_max1_r/activation	glut_max2_r/activation	glut_max3_r/activation	iliacus_r/activation	psoas_r/activation	quad_fem_r/activation	gem_r/activation	peri_r/activation	rect_fem_r/activation	vas_med_r/activation	vas_int_r/activation	vas_lat_r/activation	med_gas_r/activation	lat_gas_r/activation	soleus_r/activation	tib_post_r/activation	flex_dig_r/activation	flex_hal_r/activation	tib_ant_r/activation	per_brev_r/activation	per_long_r/activation	per_tert_r/activation	ext_dig_r/activation	ext_hal_r/activation	ercspn_r/activation	intobl_r/activation	extobl_r/activation	
          0.56127341	         -2.92996236	          2.22065937	         -4.86086070	          0.70159176	          0.91943447	          0.00152727	         29.56652605	          3.58644674	         -1.55471818	        -16.96653742	         -0.99972612	          6.51509110	        -11.67747101	         -6.56211852	          5.65984972	         -1.78893778	         -5.68529329	          6.73988475	         -0.18556839	          5.38829704	          0.74774566	         11.87639227	         -2.06721229	         -0.35160192	          2.02481012	         -4.89417125	        -13.47201575	          5.76158595	          5.19798005	        -13.45025430	         15.96877587	         17.32733311	         33.28893261	         86.51662706	         86.51662706	          0.11833867	          0.05000124	          0.05935547	          0.05000069	          0.05000094	          0.05000436	          0.21145281	          0.05936381	          0.05937052	          0.05000178	          0.05000461	          0.08243808	          0.19630471	          0.21289894	          0.15833103	          0.11398399	          0.05935505	          0.05007074	          0.06653365	          0.07041787	          0.07054488	          0.12039986	          0.05000057	          0.05000076	          0.27557310	          0.05003372	          0.05000388	          0.05000154	          0.08910499	          0.08933797	          0.07704792	          0.05662768	          0.05001338	          0.05935412	          0.05000059	          0.05000311	          0.05000307	          0.47971572	          0.30196182	          0.18428095	          0.14824184	          0.46825946	          0.17567257	          0.06806496	          0.13188058	          0.11909863	          0.32391121	          0.11682019	          0.08364047	          0.33519129	          0.21814801	          0.11789356	          0.05000961	          0.05000225	          0.05000153	          0.06846514	          0.11785618	          0.05000094	          0.05000103	          0.05000161	          0.05000442	          0.05000354	          0.34487156	          0.05000428	          0.05000457	          0.05015728	          0.05005609	          0.05001066	          0.42828071	          0.64424936	          0.05000391	          0.05002018	          0.07045227	          0.23476333	          0.05000353	          0.05000271	          0.05000247	          0.32605479	          0.44957064	          0.35008946	          0.28494849	          0.29440952	          0.36293694	          0.05000036	          0.05000726	          0.11956441	          0.05000147	          0.05000049	          0.05000173	          0.05000010	          0.05000025	          0.05000036	
          0.57249888	         -2.92927662	          2.31706225	         -5.16665858	          0.71820496	          0.91836314	          0.00133019	         28.98248987	          3.90853675	         -1.34313779	        -16.93116586	         -1.30182884	          6.28861968	        -11.48290812	         -8.31447606	          5.09543966	         -2.24296405	         -6.06708722	          7.68663662	         -0.15697992	          4.84348431	          0.73870235	         13.26074511	         -1.88687797	         -0.55304782	          2.09285008	         -5.71678425	        -13.47347673	          5.55012681	          4.98994391	        -13.45502690	         16.32686112	         16.87505924	         34.45440174	         86.51662706	         86.51662706	          0.09968841	          0.05935309	          0.05000142	          0.05936303	          0.05935552	          0.05001292	          0.18532043	          0.05000894	          0.05001394	          0.05000712	          0.05000943	          0.10833689	          0.16538322	          0.22039155	          0.17659969	          0.11872203	          0.05000199	          0.05009312	          0.05605257	          0.05932085	          0.05942710	          0.13263717	          0.05237565	          0.05003367	          0.47449339	          0.15772878	          0.09702852	          0.07046138	          0.17815735	          0.17841070	          0.15336481	          0.05000011	          0.05000025	          0.05000004	          0.05000142	          0.05000449	          0.05000372	          0.53438095	          0.25910173	          0.19642027	          0.32955423	          0.49499497	          0.17523277	          0.05890594	          0.11109571	          0.10032819	          0.27286672	          0.09840901	          0.07045867	          0.28236488	          0.18376741	          0.09931334	          0.05001229	          0.05000259	          0.05000230	          0.05767523	          0.09928364	          0.06980582	          0.05009141	          0.05001884	          0.05002816	          0.05001174	          0.29052050	          0.06587961	          0.05004597	          0.05002349	          0.05001493	          0.05001511	          0.36078275	          0.60372293	          0.05000799	          0.05009523	          0.05935555	          0.19776884	          0.05001561	          0.08878373	          0.12583863	          0.27466719	          0.37871771	          0.33309833	          0.27643832	          0.26531121	          0.35024287	          0.05000052	          0.05000980	          0.12471253	          0.05000244	          0.05000064	          0.05000244	          0.05000025	          0.06857740	          0.05000027	
          0.58372434	         -2.92473817	          2.40657279	         -5.44922373	          0.73515680	          0.91737380	          0.00114152	         28.30249908	          4.18186017	         -1.07991920	        -16.82655598	         -1.60031257	          6.05897738	        -11.87533142	        -10.18058084	          4.43383582	         -2.83270460	         -6.46259908	          8.61621626	         -0.20395056	          4.14800841	          0.69491977	         14.76152791	         -1.68318415	         -0.75608252	          2.15144615	         -6.58407072	        -13.47581698	          5.36606178	          4.70394042	        -13.46002448	         16.62485036	         16.49565380	         35.59233495	         86.51662706	         86.51662706	          0.23381680	          0.05000052	          0.23535288	          0.05000744	          0.05000143	          0.05000135	          0.16894894	          0.05000138	          0.06287275	          0.05000050	          0.05000384	          0.09126401	          0.21541955	          0.18566180	          0.14876984	          0.12634506	          0.05000375	          0.05941397	          0.08920546	          0.05000130	          0.05006219	          0.11173680	          0.05010780	          0.05000470	          0.39971145	          0.13287057	          0.14782966	          0.05935647	          0.15007959	          0.15029301	          0.12919435	          0.05935469	          0.05935632	          0.05935423	          0.05935456	          0.05003648	          0.05924349	          0.45016032	          0.28014231	          0.16546416	          0.27761655	          0.51849670	          0.14761559	          0.05000030	          0.11536250	          0.08451604	          0.29039306	          0.08289947	          0.05935434	          0.23786503	          0.15480529	          0.08366135	          0.05000834	          0.05000304	          0.05000298	          0.05000104	          0.08363851	          0.10502665	          0.05930460	          0.05930994	          0.05013829	          0.05016917	          0.24473486	          0.05940354	          0.05001489	          0.05004403	          0.05002828	          0.05002925	          0.30394007	          0.57492353	          0.05000973	          0.05000675	          0.05000150	          0.16659978	          0.14341498	          0.07489845	          0.10603956	          0.23137841	          0.31903027	          0.28364110	          0.23719768	          0.22350055	          0.29504792	          0.05000021	          0.05000316	          0.15298099	          0.05000082	          0.05000026	          0.05000100	          0.05000582	          0.05776986	          0.05004682	
          0.59494981	         -2.91799467	          2.49515775	         -5.70070695	          0.75229841	          0.91649460	          0.00094646	         27.52186419	          4.41691664	         -0.80729836	        -16.63092981	         -1.89607373	          5.83196889	        -12.34073563	        -12.17642519	          3.86804693	         -3.55805950	         -6.85076567	          9.50742366	         -0.26503271	          3.30702818	          0.69657126	         16.32781357	         -1.47115444	         -0.96701881	          2.20053986	         -7.45835613	        -13.48045891	          5.22633568	          4.36015032	        -13.46532446	         16.86816921	         16.16742291	         36.69211530	         86.51662706	         86.51662706	          0.28919000	          0.25025169	          0.31477363	          0.15026054	          0.17754467	          0.15377416	          0.14232199	          0.07311424	          0.05296456	          0.08363951	          0.05006010	          0.07688064	          0.18146867	          0.15640160	          0.12532451	          0.13846556	          0.05000356	          0.05005239	          0.07515574	          0.19032544	          0.14497876	          0.10735856	          0.05000067	          0.05000089	          0.33671555	          0.11193071	          0.12453318	          0.05000186	          0.12642695	          0.12660688	          0.10883325	          0.05000087	          0.05000224	          0.05000018	          0.05000035	          0.05000109	          0.05000118	          0.56919308	          0.34022336	          0.18928444	          0.50100681	          0.55059161	          0.24523362	          0.07293160	          0.10513996	          0.07119595	          0.31176117	          0.06983436	          0.05000090	          0.34793534	          0.13040783	          0.07047625	          0.05001268	          0.05000113	          0.05000091	          0.05000179	          0.07046195	          0.09780820	          0.05000215	          0.05000225	          0.05000514	          0.05000267	          0.23669269	          0.05008203	          0.05000403	          0.05001034	          0.05000611	          0.05000377	          0.25604095	          0.54364362	          0.05000078	          0.05000476	          0.05000283	          0.14034366	          0.12081728	          0.06309687	          0.13988467	          0.19491211	          0.26874970	          0.23893797	          0.19981495	          0.18827710	          0.24854812	          0.05000017	          0.08549244	          0.15206090	          0.05000109	          0.05000052	          0.05000116	          0.05978724	          0.05000009	          0.05000021	
